<svg width="30" height="31" viewBox="0 0 30 31" fill="none" xmlns="http://www.w3.org/2000/svg">
<path d="M15 0.492188C6.729 0.492188 0 7.13403 0 15.2979C0 23.4618 6.729 30.1036 15 30.1036C23.271 30.1036 30 23.4618 30 15.2979C30 7.13403 23.271 0.492188 15 0.492188ZM15 27.1425C8.3835 27.1425 3 21.8287 3 15.2979C3 8.7671 8.3835 3.45333 15 3.45333C21.6165 3.45333 27 8.7671 27 15.2979C27 21.8287 21.6165 27.1425 15 27.1425Z" fill="#6E6D8F"/>
<path d="M16.5 7.89453H13.5V16.7779H22.5V13.8168H16.5V7.89453Z" fill="#6E6D8F"/>
</svg>
