<svg width="44" height="45" viewBox="0 0 44 45" fill="none" xmlns="http://www.w3.org/2000/svg">
<path d="M36.6668 12.5565H7.3335V8.55658H36.6668V12.5565ZM33.0001 0.556641H11.0002V4.55661H33.0001V0.556641ZM18.9055 38.7563L12.8555 32.1564L15.4222 29.3564L18.9055 33.1564L28.6221 22.5565L31.1888 25.3564L18.9055 38.7563Z" fill="#6E6D8F"/>
<path d="M40.3333 16.5566H3.66667C2.69421 16.5566 1.76158 16.9781 1.07394 17.7282C0.386308 18.4783 0 19.4957 0 20.5566L0 40.5564C0 41.6173 0.386308 42.6347 1.07394 43.3848C1.76158 44.135 2.69421 44.5564 3.66667 44.5564H40.3333C41.3058 44.5564 42.2384 44.135 42.9261 43.3848C43.6137 42.6347 44 41.6173 44 40.5564V20.5566C44 19.4957 43.6137 18.4783 42.9261 17.7282C42.2384 16.9781 41.3058 16.5566 40.3333 16.5566ZM40.3333 40.5564H3.66667V20.5566H40.3333V40.5564Z" fill="#6E6D8F"/>
</svg>
