<svg width="44" height="31" viewBox="0 0 44 31" fill="none" xmlns="http://www.w3.org/2000/svg">
<path d="M28.875 15.2318C28.875 17.0167 28.1507 18.7284 26.8614 19.9905C25.572 21.2526 23.8234 21.9616 22 21.9616C20.1766 21.9616 18.428 21.2526 17.1386 19.9905C15.8493 18.7284 15.125 17.0167 15.125 15.2318C15.125 13.4469 15.8493 11.7352 17.1386 10.4731C18.428 9.21099 20.1766 8.50195 22 8.50195C23.8234 8.50195 25.572 9.21099 26.8614 10.4731C28.1507 11.7352 28.875 13.4469 28.875 15.2318V15.2318Z" fill="#6E6D8F"/>
<path d="M0 15.2334C0 15.2334 8.25 0.427734 22 0.427734C35.75 0.427734 44 15.2334 44 15.2334C44 15.2334 35.75 30.0391 22 30.0391C8.25 30.0391 0 15.2334 0 15.2334ZM22 24.6552C24.5527 24.6552 27.0009 23.6626 28.8059 21.8957C30.6109 20.1287 31.625 17.7322 31.625 15.2334C31.625 12.7346 30.6109 10.3381 28.8059 8.57121C27.0009 6.80428 24.5527 5.81162 22 5.81162C19.4473 5.81162 16.9991 6.80428 15.1941 8.57121C13.3891 10.3381 12.375 12.7346 12.375 15.2334C12.375 17.7322 13.3891 20.1287 15.1941 21.8957C16.9991 23.6626 19.4473 24.6552 22 24.6552V24.6552Z" fill="#6E6D8F"/>
</svg>
