<svg width="30" height="31" viewBox="0 0 30 31" fill="none" xmlns="http://www.w3.org/2000/svg">
<path d="M13.1971 0.554128C12.5756 0.687182 12.4232 0.912794 12.6518 1.35823C12.7046 1.46236 13.7247 2.51522 14.9207 3.70113L17.0958 5.85312L13.6954 9.22574C10.037 12.8471 10.0488 12.8297 9.8377 13.6396C9.72044 14.0966 9.72044 14.9065 9.8377 15.3635C10.037 16.1272 10.1602 16.2776 12.1125 18.2097C14.0589 20.1303 14.2289 20.2576 14.997 20.4601C15.1904 20.5121 15.5832 20.5526 15.8822 20.5526C16.7206 20.5584 17.3538 20.3328 18.0398 19.789C18.2332 19.6386 19.8045 18.1172 21.5281 16.4164L24.6647 13.3157L26.8046 15.4214C29.1849 17.7585 29.4722 17.9783 29.7478 17.6659C30.0057 17.3825 29.9999 17.4982 29.9999 9.61333C29.9999 1.56649 30.0057 1.70533 29.7009 1.18469C29.6246 1.05163 29.4664 0.889654 29.3491 0.81445C28.8273 0.502064 29.0853 0.507849 21.0005 0.496279C15.2608 0.484709 13.4492 0.496279 13.1971 0.554128Z" fill="#6E6D8F"/>
<path d="M5.1124 6.20591C2.57967 6.43731 0.539426 8.31162 0.0997172 10.8049C-0.029264 11.5338 -0.0351267 24.7293 0.0938545 25.435C0.322503 26.6672 0.861879 27.6854 1.72371 28.5068C2.58554 29.3283 3.51772 29.7911 4.73131 30.0109C5.44657 30.1382 18.8196 30.1324 19.5583 30.0051C21.7451 29.6291 23.4805 28.073 24.0668 25.9557C24.2427 25.3193 24.2837 24.3706 24.2837 20.8071V17.2783L22.5249 19.0137L20.7719 20.7434L20.7543 22.9186L20.7367 25.0879L20.5432 25.4755C20.3146 25.9383 19.8925 26.3317 19.4176 26.5226L19.0951 26.6499H12.1184H5.14171L4.76063 26.4705C4.27402 26.2449 3.91053 25.8863 3.68188 25.4061L3.50013 25.0301V18.146V11.2619L3.62911 10.9438C3.82258 10.4752 4.22125 10.0587 4.69028 9.83306L5.08308 9.64216L7.35198 9.61323L9.62674 9.58431L11.3269 7.90668C12.2591 6.98687 13.0272 6.21169 13.0272 6.18855C13.0272 6.13071 5.75144 6.14228 5.1124 6.20591Z" fill="#6E6D8F"/>
</svg>
