<svg width="21" height="11" viewBox="0 0 21 11" fill="none" xmlns="http://www.w3.org/2000/svg">
<path d="M13.8183 5.5C13.8183 6.16304 13.4959 6.79893 12.9222 7.26777C12.3485 7.73661 11.5704 8 10.759 8C9.94761 8 9.16947 7.73661 8.59575 7.26777C8.02202 6.79893 7.69971 6.16304 7.69971 5.5C7.69971 4.83696 8.02202 4.20107 8.59575 3.73223C9.16947 3.26339 9.94761 3 10.759 3C11.5704 3 12.3485 3.26339 12.9222 3.73223C13.4959 4.20107 13.8183 4.83696 13.8183 5.5Z" fill="#1EE43E"/>
<path d="M0.969482 5.5C0.969482 5.5 4.64061 0 10.7592 0C16.8777 0 20.5488 5.5 20.5488 5.5C20.5488 5.5 16.8777 11 10.7592 11C4.64061 11 0.969482 5.5 0.969482 5.5ZM10.7592 9C11.8951 9 12.9845 8.63125 13.7877 7.97487C14.5909 7.3185 15.0421 6.42826 15.0421 5.5C15.0421 4.57174 14.5909 3.6815 13.7877 3.02513C12.9845 2.36875 11.8951 2 10.7592 2C9.62324 2 8.53385 2.36875 7.73063 3.02513C6.92742 3.6815 6.47617 4.57174 6.47617 5.5C6.47617 6.42826 6.92742 7.3185 7.73063 7.97487C8.53385 8.63125 9.62324 9 10.7592 9Z" fill="#1EE43E"/>
</svg>
